<svg width="1200" height="1200" viewBox="0 0 1200 1200" fill="none" xmlns="http://www.w3.org/2000/svg">
<circle cx="600" cy="600" r="599.25" fill="#FBFCFC" stroke="#A1A6AD" stroke-width="1.5"/>
<path fill-rule="evenodd" clip-rule="evenodd" d="M602.394 269.41L318.465 433.508V761.705L602.394 925.803L886.322 761.705V433.508L602.394 269.41ZM614.318 186.709C606.939 182.444 597.848 182.444 590.469 186.709L252.882 381.82C245.503 386.085 240.957 393.966 240.957 402.495V792.717C240.957 801.247 245.503 809.128 252.882 813.393L590.469 1008.5C597.848 1012.77 606.939 1012.77 614.318 1008.5L951.905 813.393C959.284 809.128 963.83 801.247 963.83 792.717V402.495C963.83 393.966 959.284 386.085 951.905 381.82L614.318 186.709Z" fill="url(#paint0_linear_4331_184889)"/>
<path d="M602.394 388.283L421.305 492.945V702.268L601.201 806.24C601.939 806.667 602.394 807.455 602.394 808.308L602.393 844.146C602.393 845.984 600.406 847.133 598.816 846.214L394.475 728.112C388.941 724.913 385.532 719.002 385.532 712.605V482.607C385.532 476.21 388.941 470.299 394.475 467.101L593.45 352.102C598.984 348.903 605.803 348.903 611.337 352.102L816.494 470.245C818.071 471.153 818.086 473.427 816.521 474.356C804.413 481.544 798.214 484.743 784.668 492.284C783.935 492.692 783.037 492.688 782.311 492.268L602.394 388.283Z" fill="url(#paint1_linear_4331_184889)"/>
<path d="M632.204 602.024C632.204 601.142 632.691 600.332 633.469 599.917L813.526 503.979C815.114 503.133 817.031 504.286 817.031 506.087V739.474C817.031 740.325 816.579 741.111 815.844 741.539L635.787 846.198C634.197 847.122 632.204 845.973 632.204 844.133V602.024Z" fill="url(#paint2_linear_4331_184889)"/>
<defs>
<linearGradient id="paint0_linear_4331_184889" x1="602.394" y1="183.511" x2="602.394" y2="1011.7" gradientUnits="userSpaceOnUse">
<stop stop-color="#1DA0F0"/>
<stop offset="1" stop-color="#0781CC"/>
</linearGradient>
<linearGradient id="paint1_linear_4331_184889" x1="602.394" y1="183.511" x2="602.394" y2="1011.7" gradientUnits="userSpaceOnUse">
<stop stop-color="#1DA0F0"/>
<stop offset="1" stop-color="#0781CC"/>
</linearGradient>
<linearGradient id="paint2_linear_4331_184889" x1="602.394" y1="183.511" x2="602.394" y2="1011.7" gradientUnits="userSpaceOnUse">
<stop stop-color="#1DA0F0"/>
<stop offset="1" stop-color="#0781CC"/>
</linearGradient>
</defs>
</svg>
